{
    "asset" : {
        "generator" : "Khronos glTF Blender I/O v3.3.27",
        "version" : "2.0"
    },
    "extensionsUsed" : [
        "KHR_texture_transform"
    ],
    "extensionsRequired" : [
        "KHR_texture_transform"
    ],
    "scene" : 0,
    "scenes" : [
        {
            "name" : "Scene",
            "nodes" : [
                0
            ]
        }
    ],
    "nodes" : [
        {
            "mesh" : 0,
            "name" : "Cartridge OSRS Realistic",
            "rotation" : [
                -0.19208821654319763,
                0.19208823144435883,
                0.12974068522453308,
                0.9536097645759583
            ]
        }
    ],
    "animations" : [
        {
            "channels" : [
                {
                    "sampler" : 0,
                    "target" : {
                        "node" : 0,
                        "path" : "rotation"
                    }
                }
            ],
            "name" : "Cartridge OSRS RealisticAction.001",
            "samplers" : [
                {
                    "input" : 8,
                    "interpolation" : "LINEAR",
                    "output" : 9
                }
            ]
        }
    ],
    "materials" : [
        {
            "doubleSided" : true,
            "name" : "M_Catridge_OSRS_Realistic",
            "normalTexture" : {
                "index" : 0,
                "scale" : 0.8999999761581421
            },
            "pbrMetallicRoughness" : {
                "baseColorTexture" : {
                    "index" : 1
                },
                "metallicFactor" : 0,
                "metallicRoughnessTexture" : {
                    "extensions" : {
                        "KHR_texture_transform" : {
                            "offset" : [
                                0,
                                0.550000011920929
                            ],
                            "scale" : [
                                0.44999998807907104,
                                0.44999998807907104
                            ]
                        }
                    },
                    "index" : 2
                }
            }
        }
    ],
    "meshes" : [
        {
            "name" : "Cube.004",
            "primitives" : [
                {
                    "attributes" : {
                        "POSITION" : 0,
                        "NORMAL" : 1,
                        "TEXCOORD_0" : 2,
                        "TEXCOORD_1" : 3,
                        "TEXCOORD_2" : 4,
                        "TEXCOORD_3" : 5,
                        "COLOR_0" : 6
                    },
                    "indices" : 7,
                    "material" : 0
                }
            ]
        }
    ],
    "textures" : [
        {
            "sampler" : 0,
            "source" : 0
        },
        {
            "sampler" : 0,
            "source" : 1
        },
        {
            "sampler" : 0,
            "source" : 2
        }
    ],
    "images" : [
        {
            "mimeType" : "image/png",
            "name" : "Grunge-Map_Grunge-5",
            "uri" : "Grunge-Map_Grunge-5.png"
        },
        {
            "mimeType" : "image/png",
            "name" : "T_OSRS_Grunge_Sticker",
            "uri" : "T_OSRS_Grunge_Sticker.png"
        },
        {
            "mimeType" : "image/png",
            "name" : "Grunge-Map_Grunge-5",
            "uri" : "Grunge-Map_Grunge-1.png"
        }
    ],
    "accessors" : [
        {
            "bufferView" : 0,
            "componentType" : 5126,
            "count" : 74562,
            "max" : [
                0.3844473659992218,
                0.2960701286792755,
                0.06990215182304382
            ],
            "min" : [
                -0.3676759898662567,
                -0.20237575471401215,
                -0.03098173998296261
            ],
            "type" : "VEC3"
        },
        {
            "bufferView" : 1,
            "componentType" : 5126,
            "count" : 74562,
            "type" : "VEC3"
        },
        {
            "bufferView" : 2,
            "componentType" : 5126,
            "count" : 74562,
            "type" : "VEC2"
        },
        {
            "bufferView" : 3,
            "componentType" : 5126,
            "count" : 74562,
            "type" : "VEC2"
        },
        {
            "bufferView" : 4,
            "componentType" : 5126,
            "count" : 74562,
            "type" : "VEC2"
        },
        {
            "bufferView" : 5,
            "componentType" : 5126,
            "count" : 74562,
            "type" : "VEC2"
        },
        {
            "bufferView" : 6,
            "componentType" : 5123,
            "count" : 74562,
            "normalized" : true,
            "type" : "VEC4"
        },
        {
            "bufferView" : 7,
            "componentType" : 5125,
            "count" : 390000,
            "type" : "SCALAR"
        },
        {
            "bufferView" : 8,
            "componentType" : 5126,
            "count" : 120,
            "max" : [
                4
            ],
            "min" : [
                0.03333333333333333
            ],
            "type" : "SCALAR"
        },
        {
            "bufferView" : 9,
            "componentType" : 5126,
            "count" : 120,
            "type" : "VEC4"
        }
    ],
    "bufferViews" : [
        {
            "buffer" : 0,
            "byteLength" : 894744,
            "byteOffset" : 0,
            "target" : 34962
        },
        {
            "buffer" : 0,
            "byteLength" : 894744,
            "byteOffset" : 894744,
            "target" : 34962
        },
        {
            "buffer" : 0,
            "byteLength" : 596496,
            "byteOffset" : 1789488,
            "target" : 34962
        },
        {
            "buffer" : 0,
            "byteLength" : 596496,
            "byteOffset" : 2385984,
            "target" : 34962
        },
        {
            "buffer" : 0,
            "byteLength" : 596496,
            "byteOffset" : 2982480,
            "target" : 34962
        },
        {
            "buffer" : 0,
            "byteLength" : 596496,
            "byteOffset" : 3578976,
            "target" : 34962
        },
        {
            "buffer" : 0,
            "byteLength" : 596496,
            "byteOffset" : 4175472,
            "target" : 34962
        },
        {
            "buffer" : 0,
            "byteLength" : 1560000,
            "byteOffset" : 4771968,
            "target" : 34963
        },
        {
            "buffer" : 0,
            "byteLength" : 480,
            "byteOffset" : 6331968
        },
        {
            "buffer" : 0,
            "byteLength" : 1920,
            "byteOffset" : 6332448
        }
    ],
    "samplers" : [
        {
            "magFilter" : 9729,
            "minFilter" : 9987
        }
    ],
    "buffers" : [
        {
            "byteLength" : 6334368,
            "uri" : "CartridgeAnimated.bin"
        }
    ]
}
